<svg width="200" height="200" viewBox="0 0 200 200" fill="none" xmlns="http://www.w3.org/2000/svg">
<mask id="mask0_1344_924" style="mask-type:alpha" maskUnits="userSpaceOnUse" x="28" y="24" width="144" height="152">
<path d="M102.13 125.839C98.7958 129.02 94.9597 129.829 90.84 128.335C85.5522 126.418 80.2439 124.469 75.1818 122.039C68.9287 119.038 63.3199 114.941 58.6654 109.754C52.9616 103.398 48.9214 96.154 47.8833 87.4907C47.7964 86.7651 47.5631 86.0571 47.4099 85.3934C45.6694 85.6891 43.9177 86.0285 42.1533 86.2785C37.0049 87.0081 31.4403 83.7118 29.2891 79.065C26.7327 73.5432 28.1461 67.4091 32.0503 63.512C36.2949 59.2751 44.5716 58.755 49.1571 62.5354C51.5614 64.5177 51.5957 64.4735 53.3168 61.8164C58.6744 53.5451 65.7725 47.1359 74.3025 42.2885C76.1597 41.2331 78.1463 40.4078 80.0477 39.4268C80.4929 39.1971 80.8428 38.7749 81.2216 38.425C84.3697 35.5163 87.5949 32.6844 90.6199 29.6525C91.8167 28.453 93.0203 29.1671 93.9256 29.4237C97.1723 30.3441 100.071 28.8428 101.085 25.2493C101.127 25.1012 101.172 24.7754 101.514 24.7754C104.236 25.7567 107.276 29.3299 109.396 24.0596C110.796 24.6893 112.062 25.7039 113.32 25.6948C114.483 25.6864 115.638 24.581 116.719 24C117.787 24.8796 118.851 26.2571 120.233 26.7669C121.965 27.4053 122.937 25.7645 123.848 24.3839C127.181 30.0606 132.6 31.2212 138.491 31.4231C143.134 31.5822 147.618 31.0473 151.512 28.2586C152.853 27.2985 153.987 26.0501 155.572 24.6093C155.227 26.5697 155.134 28.3471 154.583 29.9688C153.205 34.0293 150.464 36.9884 146.561 38.7724C143.128 40.3421 139.635 41.7794 136.179 43.3005C135.36 43.6609 134.53 44.0436 133.803 44.5559C132.617 45.3931 132.098 46.51 132.973 47.8843C133.667 48.9762 133.41 49.527 132.341 50.3608C129.974 52.2072 127.213 52.2367 124.546 52.3275C119.024 52.5155 113.489 52.2621 107.966 52.4125C99.4738 52.6438 91.6872 54.959 84.9894 60.4832C79.6263 64.9065 76.3294 70.4858 75.1568 77.2845C73.8163 85.057 76.0944 91.839 80.9771 97.9245C85.4768 103.533 91.3691 107.253 97.9687 109.451C104.57 111.649 106.409 120.597 102.514 125.137C102.372 125.303 102.318 125.543 102.13 125.839ZM96.1059 33.764C96.4359 32.376 95.7784 31.4339 94.6665 31.8185C94.1593 31.994 93.5738 32.5114 93.4314 32.9941C93.3172 33.3811 93.866 34.1758 94.1739 34.2331C94.8011 34.3497 95.5383 34.5742 96.1059 33.764ZM110.596 28.639C109.524 27.7521 108.544 28.1081 108.092 29.2234C107.818 30.1398 108.658 30.7802 109.139 30.8906C110.733 31.2564 111.229 29.7987 110.596 28.639ZM115.855 31.064C117.369 30.8221 117.369 29.7987 117.296 29.4932C117.38 29.3354 116.514 28.3151 116.16 28.3551C115.434 28.4368 114.64 28.4343 114.299 29.4576C114.299 30.1398 114.435 30.2878 114.64 30.4809C115.076 30.8906 115.084 30.8906 115.855 31.064ZM125.409 31.4852C125.675 30.0585 124.532 29.1165 123.328 29.9382C122.485 30.4809 122.682 31.3724 122.929 31.7863C123.592 32.9017 125.214 32.5276 125.409 31.4852ZM101.141 31.7581C101.533 32.0563 102.264 32.2197 102.664 32.0563C103.032 31.906 103.384 31.5043 103.36 30.7812C103.36 30.1398 103.384 29.4576 102.117 29.1415C101.879 29.1904 101.678 29.1165 101.402 29.2883C100.655 29.7987 100.314 30.4809 101.141 31.7581Z" fill="#FFE22C"/>
<path d="M75.2302 174.674C72.1272 170.546 67.7367 169.27 62.8627 168.658C58.3796 168.095 54.1708 168.895 50.1488 170.588C48.3346 171.351 46.8844 172.987 45.0749 174.235C44.7115 174.15 44.5423 174.058 44.373 173.966C44.8125 167.923 48.1255 163.768 53.2612 161.113C56.7571 159.306 60.5184 158.018 64.1549 156.483C64.5693 156.308 64.9377 156.026 65.3392 155.816C67.0163 154.942 67.5272 153.322 66.2264 151.318C66.217 151.006 66.2147 150.935 66.2124 150.863C67.9517 148.744 70.2475 147.786 72.9231 147.77C78.6037 147.735 84.2847 147.773 89.9655 147.756C98.8308 147.728 107.108 145.592 114.072 139.925C119.615 135.413 123.328 129.622 124.332 122.295C125.402 114.489 122.998 107.834 118.118 101.862C113.568 96.2939 107.558 92.9966 101.03 90.4554C96.5245 88.7011 94.3512 84.4144 94.8335 80.2771C95.4291 75.1681 98.5325 71.9878 103.345 71.2092C107.29 70.5709 110.667 72.302 114.108 73.5241C120.848 75.9181 127.212 79.1619 132.966 83.4809C142.246 90.4471 148.878 99.2067 151.099 110.896C151.342 112.174 151.582 113.453 151.86 114.923C156.025 113.15 160.172 113.048 164.166 115.047C166.771 116.352 168.789 118.447 169.959 121.141C172.573 127.166 171.306 133.437 165.727 137.649C161.821 140.599 154.571 142.358 147.894 135.837C144.822 139.713 141.989 143.866 138.576 147.463C133.197 153.134 126.67 157.316 119.618 160.665C118.953 160.981 118.416 161.591 117.857 162.105C114.806 164.914 111.807 167.782 108.684 170.507C108.195 170.933 107.093 170.971 106.389 170.775C102.103 169.585 99.42 171.214 98.2372 175.043C96.5617 174.426 94.3179 173.558 92.3735 173.399C91.4418 173.323 90.0697 174.963 89.7397 175.108C89.7397 175.108 89.3986 175.45 89.0575 175.45C88.7164 175.45 88.4693 175.271 87.7441 174.79C86.2328 173.786 84.9323 173.955 83.765 175.366C83.5247 175.656 83.2587 176.132 82.6518 175.966C82.6518 175.966 82.5472 175.966 82.2846 175.712C81.9842 175.371 81.6995 175.014 81.381 174.691C79.3573 172.638 78.4631 172.683 75.9213 174.877C75.4134 175.108 75.2302 174.674 75.2302 174.674ZM96.6182 168C96.0162 168.286 95.8795 168.627 96.0162 169.813C96.2206 170.333 97.244 170.674 97.9262 170.333C98.3576 170.117 98.647 170.047 98.647 169.044C98.4231 168.253 98.0297 167.329 96.6182 168ZM103.102 166.799C103.505 167.878 104.013 169.018 105.328 167.941C105.725 167.616 105.852 166.188 105.534 165.9C104.668 165.114 103.74 165.545 103.102 166.799ZM91.044 169.448C90.2554 168.928 89.2985 168.895 88.8634 169.813C88.6472 170.27 88.7689 171.223 89.0197 171.393C89.4963 171.717 90.0808 172.039 90.8011 171.667C91.7863 170.674 91.4452 169.992 91.044 169.448ZM82.5673 171.326C82.9176 171.697 83.8838 171.775 84.3268 171.557C84.7019 171.373 84.9643 171.015 84.9643 170.333C84.9643 169.829 84.3268 169.029 83.3011 169.155C82.3604 169.334 81.7539 170.464 82.5673 171.326ZM75.7545 167.604C74.7312 167.604 74.049 167.945 74.049 168.969C74.049 169.651 74.7312 170.333 75.4134 170.333C75.985 170.333 76.4663 170.157 76.7661 169.758C77.4426 168.858 76.7778 167.604 75.7545 167.604Z" fill="#00ADE9"/>
</mask>
<g mask="url(#mask0_1344_924)">
<rect width="200" height="200" fill="white"/>
</g>
</svg>
